<mxfile host="app.diagrams.net" modified="2024-04-22T14:42:40.551Z" agent="Mozilla/5.0 (X11; Linux x86_64) AppleWebKit/537.36 (KHTML, like Gecko) Chrome/123.0.0.0 Safari/537.36" etag="4U2EjjiQdBSIdDIVjo-M" version="24.2.5" type="github">
  <diagram id="C5RBs43oDa-KdzZeNtuy" name="Page-1">
    <mxGraphModel dx="-94" dy="1500" grid="1" gridSize="10" guides="1" tooltips="1" connect="1" arrows="1" fold="1" page="1" pageScale="1" pageWidth="827" pageHeight="1169" math="0" shadow="0">
      <root>
        <mxCell id="WIyWlLk6GJQsqaUBKTNV-0" />
        <mxCell id="WIyWlLk6GJQsqaUBKTNV-1" parent="WIyWlLk6GJQsqaUBKTNV-0" />
        <mxCell id="M8GUvejzj1iZqrf_n3SH-0" value="User" style="html=1;overflow=block;blockSpacing=1;swimlane;childLayout=stackLayout;horizontal=1;horizontalStack=0;resizeParent=1;resizeParentMax=0;resizeLast=0;collapsible=0;marginBottom=0;swimlaneFillColor=#ffffff;startSize=28;whiteSpace=wrap;fontSize=13;fontColor=#333333;fontStyle=1;align=left;spacing=0;strokeColor=#333333;strokeOpacity=100;strokeWidth=1.5;" vertex="1" parent="WIyWlLk6GJQsqaUBKTNV-1">
          <mxGeometry x="1425" y="-270" width="225" height="226.75" as="geometry" />
        </mxCell>
        <mxCell id="M8GUvejzj1iZqrf_n3SH-1" value="# name = Stirng&#xa;# surname = String&#xa;# email = string&#xa;# rol = string&#xa;- password = string &#xa;- id = int" style="part=1;html=1;resizeHeight=0;strokeColor=none;fillColor=none;align=left;verticalAlign=middle;spacingLeft=4;spacingRight=4;overflow=hidden;rotatable=0;points=[[0,0.5],[1,0.5]];portConstraint=eastwest;swimlaneFillColor=#ffffff;strokeOpacity=100;whiteSpace=wrap;fontSize=13;fontColor=#333333;" vertex="1" parent="M8GUvejzj1iZqrf_n3SH-0">
          <mxGeometry y="28" width="225" height="92" as="geometry" />
        </mxCell>
        <mxCell id="M8GUvejzj1iZqrf_n3SH-2" value="" style="line;strokeWidth=1;fillColor=none;align=left;verticalAlign=middle;spacingTop=-1;spacingLeft=3;spacingRight=3;rotatable=0;labelPosition=right;points=[];portConstraint=eastwest;" vertex="1" parent="M8GUvejzj1iZqrf_n3SH-0">
          <mxGeometry y="120" width="225" height="8" as="geometry" />
        </mxCell>
        <mxCell id="M8GUvejzj1iZqrf_n3SH-3" value="+registrer():&#xa;+login():" style="part=1;html=1;resizeHeight=0;strokeColor=none;fillColor=none;align=left;verticalAlign=middle;spacingLeft=4;spacingRight=4;overflow=hidden;rotatable=0;points=[[0,0.5],[1,0.5]];portConstraint=eastwest;swimlaneFillColor=#ffffff;strokeOpacity=100;whiteSpace=wrap;fontSize=13;fontColor=#333333;" vertex="1" parent="M8GUvejzj1iZqrf_n3SH-0">
          <mxGeometry y="128" width="225" height="98.75" as="geometry" />
        </mxCell>
        <mxCell id="M8GUvejzj1iZqrf_n3SH-4" value="" style="group;dropTarget=0;pointerEvents=0;" vertex="1" parent="WIyWlLk6GJQsqaUBKTNV-1">
          <mxGeometry x="1215" y="-345" width="640" height="45" as="geometry" />
        </mxCell>
        <mxCell id="M8GUvejzj1iZqrf_n3SH-5" value="DIagrama TuckGuard" style="points=[[0.688,0.967,0]];html=1;overflow=block;blockSpacing=1;whiteSpace=wrap;fontSize=19.7;fontColor=#a9afb8;fontStyle=1;align=center;spacingLeft=7;spacingRight=7;spacingTop=2;spacing=3;strokeOpacity=0;fillOpacity=0;rounded=1;absoluteArcSize=1;arcSize=12;fillColor=#ffffff;strokeWidth=1.5;lucidId=RZHrSCKnMOeI;" vertex="1" parent="M8GUvejzj1iZqrf_n3SH-4">
          <mxGeometry width="640" height="31" as="geometry" />
        </mxCell>
        <UserObject label="%creatorName%  |  " placeholders="1" id="M8GUvejzj1iZqrf_n3SH-6">
          <mxCell style="html=1;overflow=block;blockSpacing=1;whiteSpace=wrap;fontSize=11.5;fontColor=#a9afb8;align=center;spacingLeft=7;spacingRight=7;spacingTop=2;spacing=3;strokeOpacity=0;fillOpacity=0;rounded=1;absoluteArcSize=1;arcSize=12;fillColor=#ffffff;strokeWidth=1.5;lucidId=RZHrv.U94tyD;" vertex="1" parent="M8GUvejzj1iZqrf_n3SH-4">
            <mxGeometry y="31" width="640" height="14" as="geometry" />
          </mxCell>
        </UserObject>
        <mxCell id="M8GUvejzj1iZqrf_n3SH-7" value="" style="html=1;jettySize=18;whiteSpace=wrap;fontSize=13;fontFamily=Helvetica;strokeColor=#a9afb8;strokeOpacity=100;strokeWidth=1.5;rounded=0;startArrow=none;endArrow=none;entryX=0.688;entryY=0.967;entryPerimeter=0;lucidId=RZHrMGSVa50M;" edge="1" parent="M8GUvejzj1iZqrf_n3SH-4" target="M8GUvejzj1iZqrf_n3SH-5">
          <mxGeometry width="100" height="100" relative="1" as="geometry">
            <Array as="points" />
            <mxPoint x="207" y="30" as="sourcePoint" />
          </mxGeometry>
        </mxCell>
        <mxCell id="M8GUvejzj1iZqrf_n3SH-8" value="Owner" style="html=1;overflow=block;blockSpacing=1;swimlane;childLayout=stackLayout;horizontal=1;horizontalStack=0;resizeParent=1;resizeParentMax=0;resizeLast=0;collapsible=0;marginBottom=0;swimlaneFillColor=#ffffff;startSize=28;whiteSpace=wrap;fontSize=13;fontColor=#333333;fontStyle=1;align=left;spacing=0;strokeColor=#333333;strokeOpacity=100;strokeWidth=1.5;" vertex="1" parent="WIyWlLk6GJQsqaUBKTNV-1">
          <mxGeometry x="1575" width="225" height="226.75" as="geometry" />
        </mxCell>
        <mxCell id="M8GUvejzj1iZqrf_n3SH-9" value="# ifuser = int&#xa;# surname = String&#xa;- email = string&#xa;# rol = string&#xa;- id = int" style="part=1;html=1;resizeHeight=0;strokeColor=none;fillColor=none;align=left;verticalAlign=middle;spacingLeft=4;spacingRight=4;overflow=hidden;rotatable=0;points=[[0,0.5],[1,0.5]];portConstraint=eastwest;swimlaneFillColor=#ffffff;strokeOpacity=100;whiteSpace=wrap;fontSize=13;fontColor=#333333;" vertex="1" parent="M8GUvejzj1iZqrf_n3SH-8">
          <mxGeometry y="28" width="225" height="92" as="geometry" />
        </mxCell>
        <mxCell id="M8GUvejzj1iZqrf_n3SH-10" value="" style="line;strokeWidth=1;fillColor=none;align=left;verticalAlign=middle;spacingTop=-1;spacingLeft=3;spacingRight=3;rotatable=0;labelPosition=right;points=[];portConstraint=eastwest;" vertex="1" parent="M8GUvejzj1iZqrf_n3SH-8">
          <mxGeometry y="120" width="225" height="8" as="geometry" />
        </mxCell>
        <mxCell id="M8GUvejzj1iZqrf_n3SH-11" value="-associateTruck()&#xa;-checkFleetStatus()&#xa;-assignTruckDriver()" style="part=1;html=1;resizeHeight=0;strokeColor=none;fillColor=none;align=left;verticalAlign=middle;spacingLeft=4;spacingRight=4;overflow=hidden;rotatable=0;points=[[0,0.5],[1,0.5]];portConstraint=eastwest;swimlaneFillColor=#ffffff;strokeOpacity=100;whiteSpace=wrap;fontSize=13;fontColor=#333333;" vertex="1" parent="M8GUvejzj1iZqrf_n3SH-8">
          <mxGeometry y="128" width="225" height="98.75" as="geometry" />
        </mxCell>
        <mxCell id="M8GUvejzj1iZqrf_n3SH-12" value="" style="html=1;jettySize=18;whiteSpace=wrap;fontSize=13;strokeColor=#5E5E5E;strokeWidth=1.5;rounded=1;arcSize=12;edgeStyle=orthogonalEdgeStyle;startArrow=none;endArrow=block;endFill=0;endSize=12;exitX=0.5;exitY=-0.004;exitPerimeter=0;entryX=0.345;entryY=1.004;entryPerimeter=0;lucidId=ewIrD1-KofIX;" edge="1" parent="WIyWlLk6GJQsqaUBKTNV-1" source="M8GUvejzj1iZqrf_n3SH-31" target="M8GUvejzj1iZqrf_n3SH-0">
          <mxGeometry width="100" height="100" relative="1" as="geometry">
            <Array as="points" />
          </mxGeometry>
        </mxCell>
        <mxCell id="M8GUvejzj1iZqrf_n3SH-13" value="" style="html=1;jettySize=18;whiteSpace=wrap;fontSize=13;strokeColor=#5E5E5E;strokeWidth=1.5;rounded=1;arcSize=12;edgeStyle=orthogonalEdgeStyle;startArrow=none;endArrow=block;endFill=0;endSize=12;exitX=0.5;exitY=-0.004;exitPerimeter=0;entryX=0.811;entryY=1.004;entryPerimeter=0;lucidId=iwIrDSUVTK76;" edge="1" parent="WIyWlLk6GJQsqaUBKTNV-1" source="M8GUvejzj1iZqrf_n3SH-8" target="M8GUvejzj1iZqrf_n3SH-0">
          <mxGeometry width="100" height="100" relative="1" as="geometry">
            <Array as="points" />
          </mxGeometry>
        </mxCell>
        <mxCell id="M8GUvejzj1iZqrf_n3SH-14" value="" style="html=1;jettySize=18;whiteSpace=wrap;fontSize=13;strokeColor=#5E5E5E;strokeWidth=1.5;rounded=1;arcSize=12;edgeStyle=orthogonalEdgeStyle;startArrow=none;endArrow=none;exitX=1.003;exitY=0.5;exitPerimeter=0;entryX=-0.003;entryY=0.5;entryPerimeter=0;lucidId=byIrmKG9DKh0;" edge="1" parent="WIyWlLk6GJQsqaUBKTNV-1" source="M8GUvejzj1iZqrf_n3SH-31" target="M8GUvejzj1iZqrf_n3SH-23">
          <mxGeometry width="100" height="100" relative="1" as="geometry">
            <Array as="points" />
          </mxGeometry>
        </mxCell>
        <mxCell id="M8GUvejzj1iZqrf_n3SH-15" value="1" style="text;html=1;resizable=0;labelBackgroundColor=default;align=center;verticalAlign=middle;fontStyle=1;fontSize=13.3;" vertex="1" parent="M8GUvejzj1iZqrf_n3SH-14">
          <mxGeometry x="-0.748865481510051" relative="1" as="geometry">
            <mxPoint as="offset" />
          </mxGeometry>
        </mxCell>
        <mxCell id="M8GUvejzj1iZqrf_n3SH-16" value="1" style="text;html=1;resizable=0;labelBackgroundColor=default;align=center;verticalAlign=middle;fontStyle=1;fontColor=#333333;fontSize=13.3;" vertex="1" parent="M8GUvejzj1iZqrf_n3SH-14">
          <mxGeometry x="0.7955358436935109" relative="1" as="geometry">
            <mxPoint as="offset" />
          </mxGeometry>
        </mxCell>
        <mxCell id="M8GUvejzj1iZqrf_n3SH-17" value="" style="html=1;jettySize=18;whiteSpace=wrap;fontSize=13;strokeColor=#5E5E5E;strokeWidth=1.5;rounded=1;arcSize=12;edgeStyle=orthogonalEdgeStyle;startArrow=none;endArrow=diamond;endFill=1;endSize=16;exitX=1.003;exitY=0.5;exitPerimeter=0;entryX=0.5;entryY=1.004;entryPerimeter=0;lucidId=3zIrjTDMuIJR;" edge="1" parent="WIyWlLk6GJQsqaUBKTNV-1" source="M8GUvejzj1iZqrf_n3SH-27" target="M8GUvejzj1iZqrf_n3SH-23">
          <mxGeometry width="100" height="100" relative="1" as="geometry">
            <Array as="points" />
          </mxGeometry>
        </mxCell>
        <mxCell id="M8GUvejzj1iZqrf_n3SH-18" value="1...*" style="text;html=1;resizable=0;labelBackgroundColor=default;align=center;verticalAlign=middle;fontStyle=1;fontColor=#333333;fontSize=13.3;" vertex="1" parent="M8GUvejzj1iZqrf_n3SH-17">
          <mxGeometry x="-0.7299930410577599" relative="1" as="geometry" />
        </mxCell>
        <mxCell id="M8GUvejzj1iZqrf_n3SH-19" value="" style="html=1;jettySize=18;whiteSpace=wrap;fontSize=13;strokeColor=#5E5E5E;strokeWidth=1.5;rounded=1;arcSize=12;edgeStyle=orthogonalEdgeStyle;startArrow=none;endArrow=diamond;endFill=1;endSize=16;exitX=-0.003;exitY=0.5;exitPerimeter=0;entryX=0.5;entryY=1.004;entryPerimeter=0;lucidId=Xl0rZ5ebU41l;" edge="1" parent="WIyWlLk6GJQsqaUBKTNV-1" source="M8GUvejzj1iZqrf_n3SH-27" target="M8GUvejzj1iZqrf_n3SH-31">
          <mxGeometry width="100" height="100" relative="1" as="geometry">
            <Array as="points" />
          </mxGeometry>
        </mxCell>
        <mxCell id="M8GUvejzj1iZqrf_n3SH-20" value="" style="html=1;jettySize=18;whiteSpace=wrap;fontSize=13;strokeColor=#5E5E5E;strokeWidth=1.5;rounded=1;arcSize=12;edgeStyle=orthogonalEdgeStyle;startArrow=none;endArrow=diamond;endFill=1;endSize=16;exitX=1.003;exitY=0.5;exitPerimeter=0;entryX=-0.003;entryY=0.5;entryPerimeter=0;lucidId=lu0rCQOLASm1;" edge="1" parent="WIyWlLk6GJQsqaUBKTNV-1" source="M8GUvejzj1iZqrf_n3SH-23" target="M8GUvejzj1iZqrf_n3SH-8">
          <mxGeometry width="100" height="100" relative="1" as="geometry">
            <Array as="points">
              <mxPoint x="1786" y="266" />
              <mxPoint x="1544" y="266" />
              <mxPoint x="1544" y="90" />
            </Array>
          </mxGeometry>
        </mxCell>
        <mxCell id="M8GUvejzj1iZqrf_n3SH-21" value="1" style="text;html=1;resizable=0;labelBackgroundColor=default;align=center;verticalAlign=middle;fontStyle=1;fontColor=#333333;fontSize=13.3;" vertex="1" parent="M8GUvejzj1iZqrf_n3SH-20">
          <mxGeometry x="0.6382130016448662" relative="1" as="geometry">
            <mxPoint as="offset" />
          </mxGeometry>
        </mxCell>
        <mxCell id="M8GUvejzj1iZqrf_n3SH-22" value="0...*" style="text;html=1;resizable=0;labelBackgroundColor=default;align=center;verticalAlign=middle;fontStyle=1;fontColor=#333333;fontSize=13.3;" vertex="1" parent="M8GUvejzj1iZqrf_n3SH-20">
          <mxGeometry x="-0.7321369417925743" relative="1" as="geometry">
            <mxPoint x="-241.3499999999999" as="offset" />
          </mxGeometry>
        </mxCell>
        <mxCell id="M8GUvejzj1iZqrf_n3SH-23" value="truck" style="html=1;overflow=block;blockSpacing=1;swimlane;childLayout=stackLayout;horizontal=1;horizontalStack=0;resizeParent=1;resizeParentMax=0;resizeLast=0;collapsible=0;marginBottom=0;swimlaneFillColor=#ffffff;startSize=28;whiteSpace=wrap;fontSize=13;fontColor=#333333;fontStyle=1;align=left;spacing=0;strokeColor=#333333;strokeOpacity=100;strokeWidth=1.5;" vertex="1" parent="WIyWlLk6GJQsqaUBKTNV-1">
          <mxGeometry x="1575" y="315" width="225" height="211.75" as="geometry" />
        </mxCell>
        <mxCell id="M8GUvejzj1iZqrf_n3SH-24" value="# marca = Stirng&#xa;# modelo = String&#xa;# kilometraje = int&#xa;# estado de salud = string&#xa;# id = int" style="part=1;html=1;resizeHeight=0;strokeColor=none;fillColor=none;align=left;verticalAlign=middle;spacingLeft=4;spacingRight=4;overflow=hidden;rotatable=0;points=[[0,0.5],[1,0.5]];portConstraint=eastwest;swimlaneFillColor=#ffffff;strokeOpacity=100;whiteSpace=wrap;fontSize=13;fontColor=#333333;" vertex="1" parent="M8GUvejzj1iZqrf_n3SH-23">
          <mxGeometry y="28" width="225" height="85" as="geometry" />
        </mxCell>
        <mxCell id="M8GUvejzj1iZqrf_n3SH-25" value="" style="line;strokeWidth=1;fillColor=none;align=left;verticalAlign=middle;spacingTop=-1;spacingLeft=3;spacingRight=3;rotatable=0;labelPosition=right;points=[];portConstraint=eastwest;" vertex="1" parent="M8GUvejzj1iZqrf_n3SH-23">
          <mxGeometry y="113" width="225" height="8" as="geometry" />
        </mxCell>
        <mxCell id="M8GUvejzj1iZqrf_n3SH-26" value="-registrarMantenimiento():&#xa;-ActuzalizarEstado():" style="part=1;html=1;resizeHeight=0;strokeColor=none;fillColor=none;align=left;verticalAlign=middle;spacingLeft=4;spacingRight=4;overflow=hidden;rotatable=0;points=[[0,0.5],[1,0.5]];portConstraint=eastwest;swimlaneFillColor=#ffffff;strokeOpacity=100;whiteSpace=wrap;fontSize=13;fontColor=#333333;" vertex="1" parent="M8GUvejzj1iZqrf_n3SH-23">
          <mxGeometry y="121" width="225" height="90.75" as="geometry" />
        </mxCell>
        <mxCell id="M8GUvejzj1iZqrf_n3SH-27" value="Maintenance" style="html=1;overflow=block;blockSpacing=1;swimlane;childLayout=stackLayout;horizontal=1;horizontalStack=0;resizeParent=1;resizeParentMax=0;resizeLast=0;collapsible=0;marginBottom=0;swimlaneFillColor=#ffffff;startSize=28;whiteSpace=wrap;fontSize=13;fontColor=#333333;fontStyle=1;align=left;spacing=0;strokeColor=#333333;strokeOpacity=100;strokeWidth=1.5;" vertex="1" parent="WIyWlLk6GJQsqaUBKTNV-1">
          <mxGeometry x="1305" y="555" width="225" height="194.75" as="geometry" />
        </mxCell>
        <mxCell id="M8GUvejzj1iZqrf_n3SH-28" value="# idcamion = int&#xa;# tipodemantenimiento = string&#xa;# fecha = string&#xa;# costo = int" style="part=1;html=1;resizeHeight=0;strokeColor=none;fillColor=none;align=left;verticalAlign=middle;spacingLeft=4;spacingRight=4;overflow=hidden;rotatable=0;points=[[0,0.5],[1,0.5]];portConstraint=eastwest;swimlaneFillColor=#ffffff;strokeOpacity=100;whiteSpace=wrap;fontSize=13;fontColor=#333333;" vertex="1" parent="M8GUvejzj1iZqrf_n3SH-27">
          <mxGeometry y="28" width="225" height="76" as="geometry" />
        </mxCell>
        <mxCell id="M8GUvejzj1iZqrf_n3SH-29" value="" style="line;strokeWidth=1;fillColor=none;align=left;verticalAlign=middle;spacingTop=-1;spacingLeft=3;spacingRight=3;rotatable=0;labelPosition=right;points=[];portConstraint=eastwest;" vertex="1" parent="M8GUvejzj1iZqrf_n3SH-27">
          <mxGeometry y="104" width="225" height="8" as="geometry" />
        </mxCell>
        <mxCell id="M8GUvejzj1iZqrf_n3SH-30" value="-verdetallemantenimiento():&#xa;-registrarmantenimiento():" style="part=1;html=1;resizeHeight=0;strokeColor=none;fillColor=none;align=left;verticalAlign=middle;spacingLeft=4;spacingRight=4;overflow=hidden;rotatable=0;points=[[0,0.5],[1,0.5]];portConstraint=eastwest;swimlaneFillColor=#ffffff;strokeOpacity=100;whiteSpace=wrap;fontSize=13;fontColor=#333333;" vertex="1" parent="M8GUvejzj1iZqrf_n3SH-27">
          <mxGeometry y="112" width="225" height="82.75" as="geometry" />
        </mxCell>
        <mxCell id="M8GUvejzj1iZqrf_n3SH-31" value="Drivers" style="html=1;overflow=block;blockSpacing=1;swimlane;childLayout=stackLayout;horizontal=1;horizontalStack=0;resizeParent=1;resizeParentMax=0;resizeLast=0;collapsible=0;marginBottom=0;swimlaneFillColor=#ffffff;startSize=28;whiteSpace=wrap;fontSize=13;fontColor=#333333;fontStyle=1;align=left;spacing=0;strokeColor=#333333;strokeOpacity=100;strokeWidth=1.5;" vertex="1" parent="WIyWlLk6GJQsqaUBKTNV-1">
          <mxGeometry x="990" y="8" width="225" height="211.75" as="geometry" />
        </mxCell>
        <mxCell id="M8GUvejzj1iZqrf_n3SH-32" value="# iduser = int&#xa;# idcamion = int&#xa;# name = string&#xa;# surname = string" style="part=1;html=1;resizeHeight=0;strokeColor=none;fillColor=none;align=left;verticalAlign=middle;spacingLeft=4;spacingRight=4;overflow=hidden;rotatable=0;points=[[0,0.5],[1,0.5]];portConstraint=eastwest;swimlaneFillColor=#ffffff;strokeOpacity=100;whiteSpace=wrap;fontSize=13;fontColor=#333333;" vertex="1" parent="M8GUvejzj1iZqrf_n3SH-31">
          <mxGeometry y="28" width="225" height="85" as="geometry" />
        </mxCell>
        <mxCell id="M8GUvejzj1iZqrf_n3SH-33" value="" style="line;strokeWidth=1;fillColor=none;align=left;verticalAlign=middle;spacingTop=-1;spacingLeft=3;spacingRight=3;rotatable=0;labelPosition=right;points=[];portConstraint=eastwest;" vertex="1" parent="M8GUvejzj1iZqrf_n3SH-31">
          <mxGeometry y="113" width="225" height="8" as="geometry" />
        </mxCell>
        <mxCell id="M8GUvejzj1iZqrf_n3SH-34" value="-checkTruckState()&#xa;-reportTruckState()&#xa;-newTrip()" style="part=1;html=1;resizeHeight=0;strokeColor=none;fillColor=none;align=left;verticalAlign=middle;spacingLeft=4;spacingRight=4;overflow=hidden;rotatable=0;points=[[0,0.5],[1,0.5]];portConstraint=eastwest;swimlaneFillColor=#ffffff;strokeOpacity=100;whiteSpace=wrap;fontSize=13;fontColor=#333333;" vertex="1" parent="M8GUvejzj1iZqrf_n3SH-31">
          <mxGeometry y="121" width="225" height="90.75" as="geometry" />
        </mxCell>
        <mxCell id="M8GUvejzj1iZqrf_n3SH-35" value="" style="html=1;jettySize=18;whiteSpace=wrap;fontSize=13;strokeColor=#5E5E5E;strokeWidth=1.5;rounded=1;arcSize=12;edgeStyle=orthogonalEdgeStyle;startArrow=none;endArrow=none;exitX=1.003;exitY=0.24;exitPerimeter=0;entryX=-0.003;entryY=0.153;entryPerimeter=0;lucidId=fL1r4LA53Bcd;" edge="1" parent="WIyWlLk6GJQsqaUBKTNV-1" source="M8GUvejzj1iZqrf_n3SH-31" target="M8GUvejzj1iZqrf_n3SH-8">
          <mxGeometry width="100" height="100" relative="1" as="geometry">
            <Array as="points" />
          </mxGeometry>
        </mxCell>
        <mxCell id="M8GUvejzj1iZqrf_n3SH-40" value="" style="html=1;jettySize=18;whiteSpace=wrap;fontSize=13;strokeColor=#5E5E5E;strokeWidth=1.5;rounded=1;arcSize=12;edgeStyle=orthogonalEdgeStyle;startArrow=none;endArrow=diamond;endFill=1;endSize=16;exitX=0.5;exitY=-0.002;exitPerimeter=0;entryX=1.003;entryY=0.5;entryPerimeter=0;lucidId=LhmsPSQlGuKM;" edge="1" parent="WIyWlLk6GJQsqaUBKTNV-1" target="M8GUvejzj1iZqrf_n3SH-8">
          <mxGeometry width="100" height="100" relative="1" as="geometry">
            <Array as="points" />
            <mxPoint x="2272.5" y="269.2159999999999" as="sourcePoint" />
          </mxGeometry>
        </mxCell>
        <mxCell id="M8GUvejzj1iZqrf_n3SH-41" value="1" style="text;html=1;resizable=0;labelBackgroundColor=default;align=center;verticalAlign=middle;fontStyle=1;fontColor=#333333;fontSize=13.3;" vertex="1" parent="M8GUvejzj1iZqrf_n3SH-40">
          <mxGeometry x="0.7047102104055301" relative="1" as="geometry" />
        </mxCell>
        <mxCell id="M8GUvejzj1iZqrf_n3SH-42" value="" style="html=1;jettySize=18;whiteSpace=wrap;fontSize=13;strokeColor=#5E5E5E;strokeWidth=1.5;rounded=1;arcSize=12;edgeStyle=orthogonalEdgeStyle;startArrow=none;endArrow=none;exitX=0.5;exitY=1.004;exitPerimeter=0;entryX=0.5;entryY=1.002;entryPerimeter=0;lucidId=_imsH7unCxVk;" edge="1" parent="WIyWlLk6GJQsqaUBKTNV-1" source="M8GUvejzj1iZqrf_n3SH-27">
          <mxGeometry width="100" height="100" relative="1" as="geometry">
            <Array as="points" />
            <mxPoint x="2272.5" y="662.7840000000001" as="targetPoint" />
          </mxGeometry>
        </mxCell>
        <mxCell id="M8GUvejzj1iZqrf_n3SH-43" value="Viaje " style="html=1;overflow=block;blockSpacing=1;swimlane;childLayout=stackLayout;horizontal=1;horizontalStack=0;resizeParent=1;resizeParentMax=0;resizeLast=0;collapsible=0;marginBottom=0;swimlaneFillColor=#ffffff;startSize=28;whiteSpace=wrap;fontSize=13;fontColor=#333333;fontStyle=1;align=left;spacing=0;strokeColor=#333333;strokeOpacity=100;strokeWidth=1.5;" vertex="1" parent="WIyWlLk6GJQsqaUBKTNV-1">
          <mxGeometry x="1230" y="825" width="225" height="226.75" as="geometry" />
        </mxCell>
        <mxCell id="M8GUvejzj1iZqrf_n3SH-44" value="# origen = string&#xa;#  destino = string&#xa;# kilometros = int&#xa;-combustibleinicial = float&#xa;-combustiblefinal = float" style="part=1;html=1;resizeHeight=0;strokeColor=none;fillColor=none;align=left;verticalAlign=middle;spacingLeft=4;spacingRight=4;overflow=hidden;rotatable=0;points=[[0,0.5],[1,0.5]];portConstraint=eastwest;swimlaneFillColor=#ffffff;strokeOpacity=100;whiteSpace=wrap;fontSize=13;fontColor=#333333;" vertex="1" parent="M8GUvejzj1iZqrf_n3SH-43">
          <mxGeometry y="28" width="225" height="92" as="geometry" />
        </mxCell>
        <mxCell id="M8GUvejzj1iZqrf_n3SH-45" value="" style="line;strokeWidth=1;fillColor=none;align=left;verticalAlign=middle;spacingTop=-1;spacingLeft=3;spacingRight=3;rotatable=0;labelPosition=right;points=[];portConstraint=eastwest;" vertex="1" parent="M8GUvejzj1iZqrf_n3SH-43">
          <mxGeometry y="120" width="225" height="8" as="geometry" />
        </mxCell>
        <mxCell id="M8GUvejzj1iZqrf_n3SH-46" value="-asociarcamion():&#xa;-iniciarviaje():" style="part=1;html=1;resizeHeight=0;strokeColor=none;fillColor=none;align=left;verticalAlign=middle;spacingLeft=4;spacingRight=4;overflow=hidden;rotatable=0;points=[[0,0.5],[1,0.5]];portConstraint=eastwest;swimlaneFillColor=#ffffff;strokeOpacity=100;whiteSpace=wrap;fontSize=13;fontColor=#333333;" vertex="1" parent="M8GUvejzj1iZqrf_n3SH-43">
          <mxGeometry y="128" width="225" height="98.75" as="geometry" />
        </mxCell>
        <mxCell id="M8GUvejzj1iZqrf_n3SH-47" value="" style="html=1;jettySize=18;whiteSpace=wrap;fontSize=13;strokeColor=#5E5E5E;strokeWidth=1.5;rounded=1;arcSize=12;edgeStyle=orthogonalEdgeStyle;startArrow=none;endArrow=none;exitX=0.5;exitY=-0.004;exitPerimeter=0;entryX=-0.003;entryY=0.5;entryPerimeter=0;lucidId=UIst-jBaH.EF;" edge="1" parent="WIyWlLk6GJQsqaUBKTNV-1" source="M8GUvejzj1iZqrf_n3SH-43" target="M8GUvejzj1iZqrf_n3SH-31">
          <mxGeometry width="100" height="100" relative="1" as="geometry">
            <Array as="points" />
          </mxGeometry>
        </mxCell>
        <mxCell id="M8GUvejzj1iZqrf_n3SH-48" value="1" style="text;html=1;resizable=0;labelBackgroundColor=default;align=center;verticalAlign=middle;fontStyle=1;fontColor=#333333;fontSize=13.3;" vertex="1" parent="M8GUvejzj1iZqrf_n3SH-47">
          <mxGeometry x="-0.5917456693222405" relative="1" as="geometry" />
        </mxCell>
        <mxCell id="M8GUvejzj1iZqrf_n3SH-49" value="1" style="text;html=1;resizable=0;labelBackgroundColor=default;align=center;verticalAlign=middle;fontStyle=1;fontColor=#333333;fontSize=13.3;" vertex="1" parent="M8GUvejzj1iZqrf_n3SH-47">
          <mxGeometry x="0.7727785770365032" relative="1" as="geometry" />
        </mxCell>
        <mxCell id="M8GUvejzj1iZqrf_n3SH-50" value="" style="html=1;jettySize=18;whiteSpace=wrap;fontSize=13;strokeColor=#5E5E5E;strokeWidth=1.5;rounded=1;arcSize=12;edgeStyle=orthogonalEdgeStyle;startArrow=none;endArrow=none;exitX=1.003;exitY=0.5;exitPerimeter=0;entryX=1.003;entryY=0.5;entryPerimeter=0;lucidId=sKst94pjbtB~;" edge="1" parent="WIyWlLk6GJQsqaUBKTNV-1" source="M8GUvejzj1iZqrf_n3SH-43" target="M8GUvejzj1iZqrf_n3SH-23">
          <mxGeometry width="100" height="100" relative="1" as="geometry">
            <Array as="points" />
          </mxGeometry>
        </mxCell>
        <mxCell id="M8GUvejzj1iZqrf_n3SH-51" value="1" style="text;html=1;resizable=0;labelBackgroundColor=default;align=center;verticalAlign=middle;fontStyle=1;fontColor=#333333;fontSize=13.3;" vertex="1" parent="M8GUvejzj1iZqrf_n3SH-50">
          <mxGeometry x="-0.7489077030608269" relative="1" as="geometry" />
        </mxCell>
        <mxCell id="M8GUvejzj1iZqrf_n3SH-52" value="1" style="text;html=1;resizable=0;labelBackgroundColor=default;align=center;verticalAlign=middle;fontStyle=1;fontColor=#333333;fontSize=13.3;" vertex="1" parent="M8GUvejzj1iZqrf_n3SH-50">
          <mxGeometry x="0.7718149363253972" relative="1" as="geometry" />
        </mxCell>
        <mxCell id="M8GUvejzj1iZqrf_n3SH-53" value="" style="html=1;jettySize=18;whiteSpace=wrap;fontSize=13;strokeColor=#5E5E5E;strokeWidth=1.5;rounded=1;arcSize=12;edgeStyle=orthogonalEdgeStyle;startArrow=none;endArrow=none;exitX=0.5;exitY=1;entryX=0.5;entryY=1.004;entryPerimeter=0;lucidId=IKstRQSt4Bpf;exitDx=0;exitDy=0;" edge="1" parent="WIyWlLk6GJQsqaUBKTNV-1" source="M8GUvejzj1iZqrf_n3SH-63" target="M8GUvejzj1iZqrf_n3SH-43">
          <mxGeometry width="100" height="100" relative="1" as="geometry">
            <Array as="points" />
            <mxPoint x="2272.5" y="662.7840000000001" as="sourcePoint" />
          </mxGeometry>
        </mxCell>
        <mxCell id="M8GUvejzj1iZqrf_n3SH-63" value="&lt;p style=&quot;margin:0px;margin-top:4px;text-align:center;&quot;&gt;&lt;br&gt;&lt;b&gt;FleetAnalytics&lt;/b&gt;&lt;/p&gt;&lt;hr size=&quot;1&quot; style=&quot;border-style:solid;&quot;&gt;&lt;p style=&quot;margin:0px;margin-left:4px;&quot;&gt;# calcularConsumoCombustible(): float&lt;/p&gt;&lt;hr size=&quot;1&quot; style=&quot;border-style:solid;&quot;&gt;&lt;p style=&quot;margin:0px;margin-left:4px;&quot;&gt;+ mostrarconsumocombustibeporcamion():&lt;br&gt;&lt;/p&gt;&lt;p style=&quot;margin:0px;margin-left:4px;&quot;&gt;+ mostrarrendimientodeflota():&lt;/p&gt;" style="verticalAlign=top;align=left;overflow=fill;html=1;whiteSpace=wrap;" vertex="1" parent="WIyWlLk6GJQsqaUBKTNV-1">
          <mxGeometry x="2110" y="280" width="340" height="330" as="geometry" />
        </mxCell>
      </root>
    </mxGraphModel>
  </diagram>
</mxfile>
